<?xml version="1.0" encoding="UTF-8" standalone="no"?>
<!-- Created with Inkscape (http://www.inkscape.org/) -->

<svg
   width="512"
   height="512"
   viewBox="0 0 512 512"
   version="1.1"
   id="svg5"
   xml:space="preserve"
   inkscape:version="1.2.2 (732a01da63, 2022-12-09)"
   sodipodi:docname="logo.svg"
   xmlns:inkscape="http://www.inkscape.org/namespaces/inkscape"
   xmlns:sodipodi="http://sodipodi.sourceforge.net/DTD/sodipodi-0.dtd"
   xmlns="http://www.w3.org/2000/svg"
   xmlns:svg="http://www.w3.org/2000/svg"><sodipodi:namedview
     id="namedview7"
     pagecolor="#505050"
     bordercolor="#ffffff"
     borderopacity="1"
     inkscape:showpageshadow="0"
     inkscape:pageopacity="0"
     inkscape:pagecheckerboard="1"
     inkscape:deskcolor="#505050"
     inkscape:document-units="px"
     showgrid="false"
     inkscape:zoom="0.6689453"
     inkscape:cx="-199.56789"
     inkscape:cy="191.34599"
     inkscape:window-width="1920"
     inkscape:window-height="1017"
     inkscape:window-x="-8"
     inkscape:window-y="-8"
     inkscape:window-maximized="1"
     inkscape:current-layer="layer1" /><defs
     id="defs2" /><g
     inkscape:label="Layer 1"
     inkscape:groupmode="layer"
     id="layer1"><path
       style="fill:#124b12;fill-opacity:1"
       d="m 86.724915,116.13785 c 33.522095,253.90287 33.475805,255.09274 34.699215,257.99835 1.22342,2.90562 22.09797,35.09678 24.23895,36.32019 2.14098,1.22342 10.09319,6.11709 19.49821,7.26404 9.40502,1.14695 25.80654,-0.31623 101.93415,-11.34608 76.1276,-11.02985 75.92009,-11.13421 79.20803,-15.41617 3.28793,-4.28195 0.99402,-5.58184 0.99402,-5.58184 0,0 3.21147,-1.75866 4.81721,-4.28195 1.60573,-2.5233 39.99044,-261.19953 39.99044,-261.19953 z"
       id="path2723" /><path
       style="fill:#195a19;fill-opacity:1"
       d="m 76.452014,102.83715 c 3.244074,-4.001025 5.082382,-4.163229 8.110185,-4.920179 3.027802,-0.756951 34.170911,-4.271365 129.762961,-7.947982 95.59205,-3.676617 99.91749,-3.892889 117.43549,-1.946444 17.518,1.946444 25.63003,4.574827 41.76384,9.239104 16.13381,4.664281 26.83871,8.487451 28.44445,10.399041 1.60573,1.91159 0.99402,7.87575 0.15292,8.79331 -0.84109,0.91757 -6.99363,4.87437 -16.07704,5.73946 -9.08341,0.86509 -227.41317,10.32406 -257.25865,6.43117 -29.845477,-3.89289 -32.142567,-5.02673 -38.928886,-8.54272 -4.532048,-2.34806 -10.828175,-7.10055 -12.652162,-10.08381 -1.827184,-2.98849 -0.753108,-7.16095 -0.753108,-7.16095 z"
       id="path403"
       sodipodi:nodetypes="cssssssssssc" /><path
       style="fill:#1b3a1b;fill-opacity:1"
       d="m 108.04301,116.91278 c 0,0 -23.967626,-10.55489 -23.397849,-15.29271 0.689275,-5.731471 -11.112818,-7.866328 134.654249,-11.651081 111.17998,-2.886721 105.54055,-3.568481 119.05752,-1.189494 13.51698,2.378988 55.04113,12.760025 55.90621,18.166815 0.86509,5.40679 -21.42682,7.74903 -138.56899,12.33684 -117.14218,4.58782 -147.65114,-2.37037 -147.65114,-2.37037 z"
       id="path8589"
       sodipodi:nodetypes="csssssc" /><path
       id="path19554"
       style="display:inline;fill:#f089ce;fill-opacity:1;stroke-width:0.501;stroke-dasharray:none"
       d="m 249.61914,31.65625 c -2.12928,0.09133 -4.18349,0.378148 -5.60937,0.835938 -2.19011,0.702916 -4.95007,2.083846 -5.50782,2.755859 -0.17282,0.208204 -0.33082,0.748839 -0.35156,1.201172 -0.0366,0.799828 -0.006,0.826563 1.2168,1.023437 2.72919,0.4404 3.88867,0.722703 3.88867,0.945313 0,0.137773 -2.87559,0.232422 -7.03906,0.232422 -5.10762,0 -6.99435,-0.07663 -6.86914,-0.279297 0.35888,-0.58062 2.34169,-1.211637 4.32422,-1.376953 1.94008,-0.161822 2.05664,-0.205296 2.05664,-0.759766 0,-0.721357 -1.25036,-1.601951 -3.38672,-2.384766 -2.03473,-0.745435 -6.72877,-0.799124 -9.15821,-0.105468 -2.30727,0.658851 -4.21979,1.590451 -4.66992,2.277343 -0.41624,0.635256 -0.28034,1.09755 0.69141,2.34961 0.61322,0.7901 0.58616,1.370689 -0.0996,2.134765 -0.46421,0.51697 -1.13775,0.745078 -3.78906,1.28125 -1.77382,0.358695 -3.35499,0.608875 -3.51172,0.556641 -0.15678,-0.05222 0.738,-0.621875 1.98828,-1.267578 3.33985,-1.724897 3.30788,-1.695189 2.70703,-2.578125 -0.27144,-0.398926 -0.6262,-1.03649 -0.78906,-1.416016 -0.28451,-0.663186 -0.36801,-0.689453 -2.13867,-0.689453 -3.02994,0 -5.7183,1.224941 -7.89063,3.59375 -1.12799,1.229985 -1.28147,1.686585 -0.72266,2.150391 0.18905,0.1569 0.66085,0.989106 1.04883,1.849609 0.98923,2.193925 1.13403,4.981032 0.38672,7.441406 -0.29674,0.976858 -0.58061,1.777344 -0.63086,1.777344 -0.0504,0 -0.10478,-0.940433 -0.12109,-2.089844 -0.0539,-3.839034 -1.18514,-6.678603 -3.10547,-7.798828 -0.58291,-0.339985 -2.01832,-0.86678 -3.19141,-1.169922 -3.90049,-1.00799 -9.18768,-0.225469 -11.11523,1.646485 -1.49142,1.448379 -1.56157,3.657001 -0.16797,5.24414 0.76209,0.868011 0.93136,0.930835 5.13477,1.923829 2.96123,0.699596 5.58099,1.959317 6.73828,3.240234 0.79782,0.883078 0.91601,1.174896 0.91601,2.279297 0,0.696464 -0.17931,1.609312 -0.39648,2.029297 -0.21722,0.419959 -0.3572,0.784719 -0.3125,0.810546 0.0446,0.0259 0.80549,0.383181 1.6914,0.792969 0.88625,0.409827 2.21948,1.168074 2.96094,1.685547 0.74139,0.517542 1.38129,0.941406 1.42383,0.941406 0.0426,0 0.15575,-1.097211 0.25,-2.4375 0.40252,-5.725825 1.74692,-9.200072 4.60742,-11.898437 2.74026,-2.584967 6.55542,-4.236494 11.81055,-5.115235 3.14302,-0.525484 9.75955,-0.409304 13.20312,0.232422 5.10644,0.951507 9.65634,3.061564 12.38477,5.742188 1.54613,1.518996 2.97663,4.175146 3.21484,5.970703 0.0898,0.677707 0.18302,1.232422 0.20703,1.232422 0.024,0 1.17321,-1.101726 2.55469,-2.447266 4.2504,-4.139745 6.95623,-5.357623 12.26758,-5.523437 2.64475,-0.08255 3.69162,-0.0042 5.5332,0.412109 10.73593,2.42203 18.40366,8.569697 18.83594,15.103516 0.0961,1.453243 -0.0105,2.368138 -0.47656,4.15039 l -0.59766,2.28711 2.40821,0.15625 c 6.43291,0.421561 12.73529,3.474224 16.04296,7.771484 0.60331,0.783719 1.16889,1.425781 1.25782,1.425781 0.0888,0 0.95019,-0.459904 1.91406,-1.021484 3.24339,-1.889738 4.0463,-3.193279 3.83008,-6.214844 -0.22354,-3.124158 -2.19521,-5.898888 -5.15039,-7.251953 -1.41459,-0.647592 -5.893,-1.548465 -7.76758,-1.5625 -1.01704,-0.0072 -1.06121,0.02478 -1.22656,0.90625 -0.0943,0.502935 -0.10729,1.985964 -0.0293,3.294922 l 0.14062,2.378906 -0.82031,-1.224609 c -1.70177,-2.53704 -2.37482,-5.73122 -1.54492,-7.335938 0.36853,-0.712701 3.08864,-2.694521 3.3457,-2.4375 0.0791,0.07912 0.0232,0.538565 -0.125,1.021485 -0.14817,0.482865 -0.25206,0.878377 -0.23047,0.878906 0.0216,0 1.44701,0.278181 3.16797,0.615234 1.721,0.337107 3.172,0.570221 3.22266,0.519532 0.19051,-0.190535 -0.53089,-3.055126 -1.00391,-3.986329 -1.03714,-2.041662 -3.557,-3.852316 -7.66601,-5.511718 -1.98382,-0.801087 -6.84779,-2.050481 -14.36133,-3.685547 -3.24019,-0.705076 -5.94152,-1.330151 -6.00195,-1.390625 -0.0605,-0.06052 2.28003,-0.111328 5.20117,-0.111328 4.32117,0 5.31054,-0.06295 5.31054,-0.341797 0,-0.188461 -0.39776,-1.139885 -0.88476,-2.113281 -1.57284,-3.143772 -4.36365,-5.446219 -7.91406,-6.53125 -1.9995,-0.611007 -5.62731,-0.923809 -7.88868,-0.681641 -1.42382,0.152537 -1.64076,0.237186 -1.48632,0.59375 0.0994,0.229449 0.23387,1.124345 0.29882,1.988281 0.10931,1.454271 0.16769,1.582436 0.7793,1.710938 0.78965,0.165885 6.91922,2.540705 7.8125,3.027344 l 0.62695,0.341796 -0.62695,-0.128906 c -3.09346,-0.636304 -9.29074,-1.376244 -11.50586,-1.375 -6.10396,0.0029 -12.24068,1.65402 -15.21094,4.09375 l -0.74609,0.613281 -1.02148,-1.791015 c -0.56136,-0.984856 -1.50417,-2.693002 -2.09571,-3.796875 l -1.07617,-2.007813 2.16406,2.21875 c 1.22415,1.255065 2.29553,2.155316 2.4668,2.072266 0.16651,-0.08069 0.83537,-0.532386 1.48828,-1.003906 2.28532,-1.650557 7.20455,-2.886807 11.55664,-2.902344 2.7411,-0.01001 2.86901,-0.09219 2.57227,-1.673828 -0.51496,-2.745002 -7.50396,-6.871288 -13.5586,-8.003906 -1.72417,-0.322636 -3.92931,-0.427268 -6.05859,-0.335938 z m -21.7207,14.027344 v 0.0039 0.0039 0.0039 0.0039 0.0039 0.002 c -7.78008,0.200406 -14.77101,3.115876 -17.09375,7.859375 -1.2512,2.555181 -1.42604,3.920578 -1.68555,13.191406 -0.37747,13.48558 -0.58479,16.31009 -1.375,18.81836 -1.0482,3.32711 -2.26699,5.461687 -3.60547,6.310547 -0.62003,0.39315 -1.38795,0.714843 -1.70508,0.714843 -0.56015,0 -0.55169,-0.03114 0.27539,-1.115234 2.07864,-2.72306 3.15179,-8.784144 3.54297,-20.015625 l 0.1543,-4.445312 -1.12695,-1.205079 c -3.84915,-4.11488 -12.56695,-6.378439 -18.61328,-4.832031 -3.54339,0.906227 -6.63829,3.467525 -8.5254,7.058594 -2.69577,5.130637 -3.15999,10.065433 -2.01562,21.417969 0.53771,5.33382 0.56509,6.08786 0.24023,6.58789 -0.43417,0.6683 -0.47951,0.670227 -2.74023,0.191407 -0.96604,-0.20463 -2.6241,-0.37265 -3.68555,-0.375 -1.06138,-0.003 -1.99004,-0.10422 -2.06445,-0.22461 -0.0744,-0.12032 0.34203,-0.391106 0.92578,-0.603516 0.9246,-0.33635 1.67643,-0.521684 4.38672,-1.078124 0.54934,-0.11273 0.56103,-0.179441 0.41406,-2.306641 -0.13019,-1.88455 -0.23512,-2.268461 -0.7539,-2.744141 -1.20775,-1.10752 -4.61158,-1.455437 -6.33594,-0.648437 -1.46702,0.68656 -3.62366,3.0165 -4.50781,4.86914 -1.27705,2.67578 -1.62985,4.463263 -1.48243,7.496095 0.15468,3.1817 0.74571,5.02263 3.50782,10.91797 1.70715,3.64394 2.90429,6.63466 3.70508,9.22656 h 0.0449 0.3164 0.28711 0.29688 0.30469 0.27929 0.3125 0.41016 0.33398 c 0.15865,-0.004 0.31678,0.0157 0.47461,0.0273 0.0667,0.005 0.13437,0.006 0.20117,0.008 0.0731,0.001 0.14565,0.002 0.21875,0.002 0.0838,3.6e-4 0.16816,0.002 0.25196,0.002 0.0987,5e-5 0.19622,-1e-5 0.29492,0 0.16561,-0.004 0.33152,0.005 0.49609,0.0234 0.0565,0.008 0.11302,0.009 0.16992,0.01 0.16244,7e-4 0.32436,0.0193 0.48633,0.0293 0.1044,0.005 0.20798,0.008 0.3125,0.01 0.14463,0.004 0.28931,0.0232 0.4336,0.0312 0.14728,0.006 0.29258,0.0236 0.43945,0.0352 0.0782,0.006 0.15793,0.01 0.23633,0.0117 0.0891,0.002 0.17652,0.002 0.26562,0.002 0.12411,4.1e-4 0.24894,-7e-5 0.37305,0 0.13942,6e-5 0.27854,-1e-5 0.41797,0 0.1567,1e-5 0.314,0 0.4707,0 h 0.46289 c 0.12382,-0.001 0.2481,0.004 0.36914,-0.004 0.13935,-0.009 0.27913,-0.0127 0.41797,-0.0254 0.15893,-0.0131 0.30568,-0.0342 0.4707,-0.0488 0.20018,-0.0161 0.40086,-0.0233 0.60157,-0.0293 0.1662,-0.004 0.33376,-0.005 0.5,-0.006 0.1543,-6.2e-4 0.30858,1.3e-4 0.46289,0 0.13509,-9e-5 0.2692,2e-5 0.40429,0 0.12423,-2e-5 0.24882,-0.002 0.37305,-0.002 0.16542,-0.004 0.32937,0.017 0.49414,0.0273 0.0897,0.005 0.17973,0.006 0.26953,0.008 0.0909,0.001 0.18254,0.002 0.27344,0.002 10e-4,-1e-5 0.003,0 0.004,0 0.0233,-1.07689 -0.2641,-2.43071 -0.79297,-3.58594 -0.60636,-1.32449 -2.94369,-3.93717 -4.54102,-5.07617 l -0.75195,-0.53711 0.77539,-0.008 c 1.06074,-0.0115 3.47089,1.2422 5.04297,2.62305 1.75564,1.5421 2.62893,3.35796 2.78516,5.79297 l 0.0469,0.73437 h 0.0312 0.0684 0.0644 0.0273 c 0.0604,0 0.1108,0.009 0.15234,0.0254 0.004,6.4e-4 0.008,-6e-4 0.0117,0.002 0.0156,0.003 0.0312,0.005 0.0469,0.006 0.0197,3.9e-4 0.0408,-2.7e-4 0.0605,0 0.0199,2.4e-4 0.0387,-4e-5 0.0586,0 0.0234,4e-5 0.0469,-1e-5 0.0703,0 0.0207,0 0.0417,-1e-5 0.0625,0 h 0.0586 c 0.0215,0 0.0432,3.5e-4 0.0645,-0.002 0.035,-0.002 0.0704,-0.003 0.10547,-0.004 0.0225,-0.002 0.0459,-0.003 0.0684,-0.004 0.0202,-10e-4 0.0384,-0.004 0.0586,-0.006 0.025,-0.002 0.0511,-0.003 0.0762,-0.004 0.0212,-5.5e-4 0.0439,8e-5 0.0644,0 0.0238,-8e-5 0.0465,1e-5 0.0703,0 0.0196,-0.003 0.0408,-0.003 0.0606,-0.004 0.0222,-0.001 0.0441,-0.003 0.0664,-0.004 0.0188,-2.9e-4 0.0378,6e-5 0.0566,0 0.0163,-5e-5 0.0325,1e-5 0.0488,0 0.0198,0 0.0388,1e-5 0.0586,0 h 0.0606 0.0566 0.0625 0.0605 0.0781 0.11523 0.0996 0.0684 0.0664 0.0605 c 0.0342,0 0.0693,-10e-4 0.10352,0.002 0.0264,0.002 0.0517,0.004 0.0781,0.006 0.0194,10e-4 0.0391,0.003 0.0586,0.004 0.0205,0.001 0.0419,0.005 0.0625,0.006 0.0167,4.6e-4 0.0321,0.002 0.0488,0.002 0.023,2.9e-4 0.0472,-5e-5 0.0703,0 0.0217,5e-5 0.0427,-1e-5 0.0644,0 0.0296,0 0.0584,0.004 0.0879,0.006 0.0158,6.7e-4 0.0329,0.002 0.0488,0.002 0.0199,2.9e-4 0.0387,-8e-5 0.0586,0 0.0183,6e-5 0.0364,-1e-5 0.0547,0 0.0189,1e-5 0.0377,0 0.0566,0 0.0194,1e-5 0.0392,0 0.0586,0 h 0.0644 0.0508 0.0566 0.0664 0.10351 0.10938 0.082 0.0742 0.0625 0.0762 0.1543 0.18164 0.15039 0.14648 0.043 c 0.0354,-0.0153 0.0786,-0.026 0.12891,-0.0293 0.0113,-7.4e-4 0.0231,0 0.0351,0 h 0.0274 0.0351 0.0371 c 0.0162,0 0.0327,-4.5e-4 0.0488,0.002 0.007,5.5e-4 0.0125,0.002 0.0195,0.002 0.0126,1.2e-4 0.0265,-5.4e-4 0.0391,0 0.017,0.001 0.034,0.004 0.0508,0.006 0.0177,0 0.035,-4e-4 0.0527,0.002 0.0521,0.003 0.10415,0.01 0.15625,0.0117 0.0502,0.002 0.10009,0.0107 0.15039,0.0117 0.0347,3.8e-4 0.0687,-1.9e-4 0.10352,0 0.0272,0 0.0548,-3e-5 0.082,0 h 0.10937 0.13282 0.13281 0.13867 c 0.0328,0 0.0651,0.0107 0.0977,0.0117 0.0189,-0.003 0.0378,-0.01 0.0566,-0.0117 0.0174,-0.002 0.0189,0.0117 0.0352,0.0117 0.0122,4.1e-4 0.0249,0.0117 0.0371,0.0117 0.0464,2.4e-4 0.0942,0 0.14063,0 0.0224,2e-5 0.0444,0 0.0664,0 -0.0296,-0.0127 -0.007,-0.0345 -0.0547,-0.0449 0.009,8.8e-4 0.018,0.0117 0.0273,0.0117 0.003,-4.8e-4 0.0504,0.002 0.0215,0 h 0.002 c 0.002,-2.2e-4 0.005,2e-4 0.008,0 0.0277,-0.002 0.0542,-0.0107 0.082,-0.0117 0.0231,-5.5e-4 0.0472,-0.002 0.0703,-0.002 0.0306,-1.5e-4 0.0612,2e-5 0.0918,0 h 0.0879 c 0.0436,-9.9e-4 0.0857,0.006 0.12891,0.0117 0.0184,0.002 0.038,0.0107 0.0566,0.0117 0.0282,0 0.056,0.003 0.084,0.006 0.0137,9.9e-4 0.0273,-4.8e-4 0.041,0.002 0.0308,0 0.0612,0.009 0.0918,0.0117 0.0115,0.002 0.0239,0.01 0.0351,0.01 0.0359,9.9e-4 0.0715,0.008 0.10742,0.01 0.0311,9.9e-4 0.0625,0.004 0.0937,0.004 0.0325,3.8e-4 0.0652,0.002 0.0977,0.002 0.0283,6e-5 0.0575,0 0.0859,0 h 0.0918 c 0.0317,9.9e-4 0.0283,0.001 0.0488,-0.002 0.0277,-0.002 0.0563,-0.004 0.084,-0.006 0.0396,-0.003 0.0795,-0.009 0.11914,-0.0117 0.0366,-0.003 0.0729,-0.008 0.10937,-0.0117 0.0502,-0.006 0.1,-0.008 0.15039,-0.01 0.0359,-0.002 0.0715,-0.0117 0.10742,-0.0117 0.0296,-2.6e-4 0.0602,2e-5 0.0898,0 0.0295,-4e-5 0.0584,-10e-6 0.0879,0 h 0.10742 0.0879 0.0996 0.10352 0.14062 0.12305 0.0937 0.084 0.0762 0.0684 0.0918 0.0898 0.0781 0.0703 0.084 c 0.0386,-9.9e-4 0.0767,0.01 0.11523,0.0117 0.0272,9.9e-4 0.0548,-4.5e-4 0.082,0.002 0.0297,6.3e-4 0.0582,0.004 0.0879,0.004 0.0292,1e-4 0.0587,-2e-5 0.0879,0 0.0247,1e-5 0.0495,0 0.0742,0 h 0.0879 0.0879 0.0703 0.0645 0.0742 0.0644 0.0762 0.084 c 0.007,-2.1e-4 0.0128,3e-5 0.0195,0 0.004,-9.9e-4 0.0185,-0.006 0.0215,-0.006 0.0205,-0.002 0.04,-0.0107 0.0606,-0.0117 0.0283,-0.003 0.0574,-0.0107 0.0859,-0.0117 0.0286,-9.9e-4 0.0572,-0.002 0.0859,-0.002 0.0231,-1.8e-4 0.0453,4e-5 0.0684,0 0.0218,-2e-5 0.0446,1e-5 0.0664,0 h 0.0684 0.082 0.0996 0.0957 0.0742 0.0879 0.0645 0.0625 0.082 0.084 0.0801 0.0684 0.0586 0.0723 0.0781 0.0742 c -0.005,2.8e-4 0.005,1.2e-4 0.0137,0 0.006,-7e-4 0.0161,-0.002 0.0176,-0.002 0.0117,-7.4e-4 0.0234,-0.003 0.0352,-0.004 0.001,0 0.002,1.2e-4 0.004,0 0.004,-9e-5 0.008,-0.0117 0.0117,-0.0117 0.0283,-0.003 0.0555,-0.0107 0.084,-0.0117 0.0234,-0.002 0.0469,-0.004 0.0703,-0.004 0.0158,-1.1e-4 0.0329,2e-5 0.0488,0 0.0129,-3e-5 0.0169,0.0107 0.0293,0.0117 0.007,-9.5e-4 0.014,-0.003 0.0215,-0.004 0.0662,-0.007 0.13262,-0.01 0.19922,-0.0117 0.0578,-0.002 0.11593,-0.002 0.17383,-0.004 0.0384,-2.9e-4 0.0767,-0.008 0.11523,-0.008 0.034,-6e-5 0.0676,-1e-5 0.10156,0 0.0591,0 0.11874,0.01 0.17774,0.0117 0.0511,0.002 0.10124,0.007 0.15234,0.008 0.0636,2.9e-4 0.12811,0.006 0.19141,0.0117 0.0358,0.005 0.0713,0.0107 0.10742,0.0117 0.0452,0.002 0.0914,0.002 0.13672,0.004 0.0434,3.8e-4 0.0855,0.002 0.12891,0.002 0.053,8e-5 0.10715,-1e-5 0.16015,0 0.0673,0 0.13397,-0.008 0.20117,-0.01 0.0696,-0.002 0.13929,-0.005 0.20899,-0.006 0.0628,-4.8e-4 0.12665,1.4e-4 0.18945,0 0.0548,-4e-5 0.10926,2e-5 0.16406,0 h 0.17969 c 0.0494,-9.4e-4 0.099,-0.002 0.14844,-0.006 0.0483,-10e-4 0.0964,-0.006 0.14453,-0.01 0.0633,-0.005 0.12595,-0.01 0.18945,-0.0117 0.0695,-0.002 0.13949,-0.004 0.20899,-0.004 0.0409,-1.4e-4 0.0822,4e-5 0.12304,0 0.0274,-4e-5 0.0174,-0.002 0.0293,-0.004 0.0412,-0.003 0.0819,-0.01 0.12305,-0.0117 0.0551,-0.002 0.11091,-0.008 0.16601,-0.008 0.0391,-0.004 0.0782,-0.009 0.11719,-0.0137 0.0826,-0.0121 0.16495,-0.0196 0.24805,-0.0273 0.0579,-0.006 0.11573,-0.008 0.17383,-0.01 0.051,-0.002 0.10134,-0.008 0.15234,-0.008 0.051,-1.7e-4 0.1033,3e-5 0.1543,0 0.0488,-3e-5 0.0977,10e-6 0.14648,0 0.0642,10e-4 0.12751,0.009 0.19141,0.0156 0.053,0.005 0.10715,0.009 0.16015,0.0137 0.0818,0.0105 0.1638,0.0155 0.2461,0.0195 0.0979,0.003 0.19497,0.009 0.29297,0.01 0.0862,5.9e-4 0.17161,-1.8e-4 0.25781,0 0.0976,1.6e-4 0.19537,-3e-5 0.29297,0 0.085,2e-5 0.17076,0 0.25586,0 0.0603,1e-5 0.12134,0 0.18164,0 0.0402,0.002 0.079,-0.006 0.11914,-0.008 0.0657,-0.003 0.13156,-0.009 0.19726,-0.0117 0.0868,-0.005 0.17287,-0.0107 0.25977,-0.0117 0.094,-0.001 0.1892,-0.002 0.2832,-0.002 0.0658,0 0.13147,-0.007 0.19727,-0.0117 0.013,-6.5e-4 0.026,5e-4 0.0391,0 0.27125,-0.0713 0.57691,-0.11719 0.92773,-0.11719 h 0.32813 0.30664 0.24609 0.25977 0.30273 c 0.15263,-0.003 0.30509,0.005 0.45703,0.0156 0.11833,0.005 0.23575,0.022 0.35352,0.0332 0.11102,0.006 0.22121,0.0164 0.33203,0.0254 0.1228,0.009 0.24606,0.0126 0.36914,0.0156 0.20188,5e-4 0.40381,0.007 0.60547,0.0156 0.17315,0.008 0.34622,0.0107 0.51953,0.0137 0.16974,0.002 0.34002,0.0107 0.50977,0.0117 0.14966,5.5e-4 0.29956,-9e-5 0.44922,0 0.17694,9e-5 0.35432,-2e-5 0.53125,0 0.15109,0.003 0.30073,-0.0119 0.45117,-0.0234 0.19638,-0.0115 0.39159,-0.0282 0.58789,-0.041 0.18951,-0.007 0.37944,-0.023 0.56836,-0.0391 0.20281,-0.0177 0.40601,-0.0301 0.60937,-0.0391 0.15944,-0.007 0.31896,-0.01 0.47852,-0.0117 0.11677,-9e-4 0.23295,-0.0116 0.34961,-0.0176 0.14438,-0.007 0.28905,-0.01 0.43359,-0.0117 0.15364,-0.002 0.30729,-0.0117 0.46094,-0.0117 0.18953,-2.9e-4 0.37883,6e-5 0.56836,0 0.11132,-0.001 0.22832,0.001 0.33203,-0.006 0.0201,-0.001 0.0404,4.4e-4 0.0606,-0.002 -1.50903,-2.73434 -2.65245,-5.94356 -3.28711,-9.38672 -0.3265,-1.77135 -0.44081,-3.70699 -0.44141,-7.5293 0,-6.30284 0.53903,-10.699343 2.48633,-20.244145 2.13315,-10.455609 2.91821,-12.903775 4.64844,-14.507812 0.40442,-0.374937 0.60726,-0.562382 0.6875,-0.578125 0.0802,-0.01574 0.0371,0.140679 -0.0488,0.453125 -0.61533,2.23796 -3.25296,13.835325 -3.88086,17.0625 -1.4637,7.522496 -1.65464,9.41091 -1.65234,16.310547 0,7.18318 0.29187,9.20856 2.00195,13.9961 0.52382,1.46648 1.34362,2.94946 2.25977,4.3457 0.0378,-0.004 0.0755,-0.008 0.11328,-0.0117 0.1475,-0.0129 0.29539,-0.0175 0.44336,-0.0215 0.11173,-0.003 0.22415,-0.009 0.33593,-0.01 0.0976,-4.9e-4 0.19537,8e-5 0.29297,0 0.0987,-8e-5 0.19622,0 0.29492,0 0.0967,-2e-5 0.19432,0 0.29102,0 h 0.39062 0.43946 0.39258 c 0.10317,0.003 0.19667,-0.004 0.29687,-0.01 0.13222,-0.009 0.26599,-0.0155 0.39844,-0.0195 0.11886,-0.004 0.23657,-0.005 0.35547,-0.006 0.13188,-5.4e-4 0.2646,-0.002 0.39648,-0.002 0.12825,-7e-5 0.25652,2e-5 0.38477,0 h 0.32031 0.46289 0.44141 c 0.0991,-9.9e-4 0.21637,0.002 0.29687,-0.004 0.14029,-0.0104 0.2813,-0.0145 0.42188,-0.0195 0.083,-0.003 0.16504,-0.009 0.24804,-0.01 0.0788,-0.009 0.15723,-0.0154 0.23633,-0.0234 0.13048,-0.0137 0.26752,-0.0213 0.39453,-0.0293 0.13322,-0.0148 0.26656,-0.0227 0.40039,-0.0293 0.11744,-0.006 0.23598,-0.01 0.35352,-0.0117 0.0898,-0.002 0.17778,-0.004 0.26758,-0.004 0.0828,-1.2e-4 0.1672,-0.004 0.25,-0.004 0.0706,0 0.0478,0.0106 0.0723,0 0.1466,-0.01 0.29262,-0.0165 0.43946,-0.0215 0.15659,-0.004 0.31405,-0.005 0.4707,-0.006 0.19767,-7.8e-4 0.39607,-0.002 0.59375,-0.002 0.17764,-1.3e-4 0.3536,2e-5 0.53125,0 0.16326,-0.01 0.32671,-0.0145 0.49023,-0.0195 0.16248,-0.004 0.32575,-0.01 0.48828,-0.0117 0.11837,-9.9e-4 0.23709,-0.002 0.35547,-0.002 0.008,0 0.0157,-3e-5 0.0234,0 0.01,-0.007 0.0237,-0.0107 0.0352,-0.0117 0.0175,-0.002 0.0353,-0.003 0.0527,-0.004 0.0633,-0.004 0.0678,-0.008 0.13086,-0.0117 0.11042,-0.003 0.22,-0.0125 0.33008,-0.0215 0.13471,-0.0107 0.26926,-0.0155 0.4043,-0.0195 0.13061,-0.003 0.26192,-0.005 0.39257,-0.006 0.1051,-3.8e-4 0.20935,9e-5 0.31446,0 0.0871,-6e-5 0.17462,1e-5 0.26172,0 0.02,-4.5e-4 0.0405,-1.9e-4 0.0605,0 -0.0137,0 0.0273,-0.0107 0.041,-0.0117 0.0164,-9.9e-4 0.0324,-0.007 0.0488,-0.008 0.11751,-0.0102 0.23565,-0.0146 0.35351,-0.0176 0.11548,-0.003 0.23046,-0.007 0.3457,-0.008 0.13111,-4e-4 0.26344,6e-5 0.39454,0 0.12421,-5e-5 0.24883,1e-5 0.37304,0 h 0.31055 0.16797 c 0.21129,-0.0792 0.4598,-0.13461 0.74609,-0.15625 0.35311,-0.0269 0.70666,-0.0285 1.06055,-0.0293 0.51861,0.003 1.03765,0.008 1.55664,0.0117 0.0388,-6.1e-4 0.0661,-0.0117 0.10547,-0.0117 h 0.0566 c 0.13606,-0.0217 0.28215,-0.0371 0.44141,-0.0371 h 0.35156 c 0.20855,0 0.41647,0.006 0.625,0.01 0.17008,0.004 0.34008,0.009 0.50976,0.0215 0.0692,0.006 0.13788,0.0105 0.20704,0.0137 0.1378,7.1e-4 0.27606,0.006 0.41406,0.0117 0.0567,-8e-5 0.1134,-7e-5 0.16992,0 0.10547,-0.008 0.21052,-0.0107 0.31641,-0.0137 0.1417,-0.004 0.28403,-0.0107 0.42578,-0.0117 0.0666,0.002 0.13784,-0.006 0.18554,-0.0117 0.14637,-0.0187 0.29395,-0.0234 0.44141,-0.0254 0.14611,0.002 0.29347,0.005 0.43945,0.0117 0.0366,0.002 0.073,0.01 0.10938,0.0117 0.20087,-0.0267 0.39949,-0.0699 0.60156,-0.0801 0.23391,-0.009 0.46711,-0.01 0.70117,-0.0117 0.007,-4e-5 0.0576,-0.004 0.10742,-0.004 4.6e-4,-4e-5 0.003,5e-5 0.004,0 0.0252,-0.003 0.16112,-0.0129 0.16992,-0.0137 0.21988,-0.0207 0.44143,-0.034 0.66211,-0.041 0.17854,-0.005 0.35657,-0.009 0.53516,-0.01 0.143,-6.2e-4 0.28668,-0.004 0.42969,-0.004 0.0945,-6e-5 0.18864,1e-5 0.2832,0 0.14714,-0.0173 0.3136,-0.0316 0.4668,-0.041 0.004,-1e-4 0.0672,-0.009 0.1289,-0.0117 -0.003,7e-5 0.009,-0.002 0.008,-0.002 -0.0107,-6.7e-4 0.0571,-0.009 0.0859,-0.0117 0.0456,-0.005 0.0931,-0.009 0.13867,-0.0137 0.40657,-0.0364 0.8148,-0.0399 1.22266,-0.0449 0.35081,-0.004 0.7019,-0.007 1.05273,-0.008 0.21386,-5.2e-4 0.42678,1.8e-4 0.64063,0 0.1914,-1.4e-4 0.38283,10e-6 0.57422,0 -0.0219,-3.2e-4 -0.0448,-0.004 -0.0664,-0.008 -0.0123,-10e-4 0.0247,1.5e-4 0.0371,-0.002 0.0264,-0.003 0.0537,-0.01 0.0801,-0.0117 0.11485,-0.009 0.22876,-0.0184 0.34375,-0.0254 0.24749,-0.0146 0.4963,-0.0175 0.74414,-0.0215 0.21536,-0.003 0.43111,-0.005 0.64648,-0.006 0.1943,-4.1e-4 0.38773,7e-5 0.58204,0 0.20634,-8e-5 0.41279,1e-5 0.61914,0 0.15536,0 0.31142,-0.002 0.46679,-0.002 0.006,-5.3e-4 0.0119,-0.003 0.0195,-0.004 3.1e-4,-5.9e-4 0.12875,-0.0194 0.15235,-0.0234 0.25379,-0.0399 0.50935,-0.0604 0.76562,-0.0762 0.16973,-0.004 0.34106,-0.0285 0.51953,-0.0488 0.28777,-0.0445 0.5755,-0.0768 0.86524,-0.10547 0.27077,-0.0271 0.54253,-0.0399 0.81445,-0.0469 0.0591,-5.1e-4 0.18289,-0.01 0.28125,-0.0176 0.085,-0.0154 0.18314,-0.0425 0.26563,-0.0566 4.83762,-0.83341 7.10327,-2.21806 8.63086,-5.27149 2.00201,-4.00241 2.09028,-7.30301 0.41406,-15.687503 -0.55444,-2.773164 -1.11086,-6.225104 -1.23633,-7.669922 -0.24944,-2.872876 0.005,-6.458369 0.54883,-7.791016 0.321,-0.783107 0.34727,-0.680558 0.51367,2.039063 0.33157,5.418078 1.39327,11.525372 2.92578,16.833988 1.77602,6.15228 0.98829,11.66595 -2.24609,15.72852 l -1.00195,1.25781 2.18554,0.26562 h 1.14063 0.82617 c 0.0469,-0.001 0.0937,-0.009 0.14062,-0.01 0.0589,-9.9e-4 0.14362,-0.0125 0.42774,-0.0332 0.40295,-0.0274 0.80721,-0.035 1.21094,-0.041 0.38962,-0.005 0.77831,-0.0107 1.16796,-0.0117 0.33618,0 0.67417,-0.0205 1.00782,-0.0625 0.45189,-0.062 0.90472,-0.10854 1.35937,-0.14453 0.39943,-0.0303 0.80078,-0.0447 1.20117,-0.0527 0.32747,-0.004 0.65353,2.4e-4 0.98047,-0.0176 0.39215,-0.024 0.78509,-0.0434 1.17774,-0.0566 0.29517,8e-4 0.58569,-0.0169 0.8789,-0.0371 0.4593,-0.0332 0.91862,-0.0446 1.37891,-0.0547 0.32112,0.003 0.63918,-0.0113 0.95898,-0.0332 0.39681,-0.0296 0.79565,-0.0461 1.19336,-0.0567 0.36269,-0.009 0.72511,-0.0117 1.08789,-0.0137 0.32479,0.004 0.35592,-0.009 0.73829,-0.0332 0.32134,-0.0463 0.67848,-0.0727 1.01367,-0.0957 0.41493,-0.0269 0.83044,-0.035 1.24609,-0.041 0.3217,0.006 0.64218,-0.01 0.96289,-0.0293 0.37635,-0.0247 0.75193,-0.0398 1.12891,-0.0508 0.0565,-0.001 0.11342,-0.005 0.16992,-0.006 -0.021,-1.6e-4 -0.0812,0.009 -0.0625,0 0.0235,-0.012 0.10482,-0.0117 0.0781,-0.0117 -0.0335,0 -0.0661,0.0117 -0.0996,0.0117 -0.0142,0 0.027,-0.01 0.041,-0.0117 0.0394,-0.007 0.0796,-0.0125 0.11914,-0.0195 0.3465,-0.0613 0.69624,-0.0942 1.04688,-0.11914 0.0343,-0.0194 0.0781,-0.0119 0.11718,-0.0156 0.0733,-0.008 0.14731,-0.0145 0.22071,-0.0215 0.14751,-0.0139 0.28653,-0.0264 0.43359,-0.043 0.32045,-0.0344 0.64124,-0.062 0.96289,-0.082 0.22098,-0.0134 0.13727,0.002 0.23047,-0.0156 0.19739,-0.0248 0.52343,-0.077 0.81836,-0.11328 0.44058,-0.0552 0.88464,-0.0729 1.32812,-0.084 0.34539,-0.007 0.68971,-0.01 1.03516,-0.0117 0.24686,-9.9e-4 0.49359,-0.002 0.74023,-0.002 0.0365,-2e-5 0.0729,0 0.10938,0 1.32411,-2.33426 2.23482,-5.16099 2.99805,-9.06836 0.36393,-1.86306 0.81135,-4.8544 0.99218,-6.64844 l 0.32813,-3.261718 0.3457,1.128906 c 0.22879,0.745982 0.3373,2.277702 0.32032,4.515632 -0.0392,5.03259 -1.00808,9.57971 -2.67774,13.33398 h 0.5293 1.07031 0.84766 0.85351 0.72461 0.8418 c -0.01,-9.9e-4 -0.0393,-0.007 -0.0293,-0.008 0.30793,-0.031 0.62061,-0.0381 0.92969,-0.0527 0.33639,-0.0162 0.67304,-0.0214 1.00976,-0.0254 -0.006,-9.9e-4 -0.0236,-0.005 -0.0176,-0.006 0.2436,-0.0337 0.49498,-0.0378 0.74023,-0.0527 0.31821,-0.02 0.66766,-0.0231 0.96484,-0.0332 0.32859,-0.0451 0.66665,-0.0151 0.99414,-0.0625 0.33731,-0.0342 0.67534,-0.0605 1.01368,-0.082 0.11635,-0.002 0.23299,-0.0122 0.34961,-0.0176 -0.003,-1.9e-4 0.0598,-0.006 0.21093,-0.0215 0.39285,-0.0427 0.78686,-0.059 1.18164,-0.0703 0.30855,-0.0332 0.62804,-0.0497 0.94141,-0.0664 0.27386,-10e-4 0.50067,-0.0273 0.77149,-0.0527 0.21484,-0.02 0.43083,-0.0283 0.64648,-0.0391 1.62349,-7.12502 1.92323,-9.38268 1.75391,-13.25391 -0.2833,-6.476139 -2.03054,-11.613963 -6.49415,-19.097659 -3.01909,-5.062217 -5.44029,-7.560445 -8.86523,-9.144531 -2.87088,-1.327748 -5.39714,-1.918656 -8.37891,-1.958985 L 289.32617,73.375 289,74.5 c -0.17994,0.614461 -0.5105,2.364115 -0.73438,3.888672 -0.58335,3.973488 -0.38655,6.915257 0.76954,11.429687 1.14678,4.47789 1.35371,6.667988 0.80468,8.556641 -0.37106,1.276366 -1.94619,3.53423 -2.25586,3.23438 -0.0727,-0.0704 0.046,-1.08621 0.26368,-2.257818 0.56016,-3.016962 0.47049,-4.053495 -0.80664,-9.283203 -0.6236,-2.55304 -1.20252,-5.544417 -1.28516,-6.648437 -0.24463,-3.267063 0.41419,-7.818231 2.19531,-15.177734 0.85609,-3.537403 0.82553,-4.539961 -0.20117,-6.714844 -1.16151,-2.460328 -4.51688,-5.415437 -8.31055,-7.320313 -4.8529,-2.436869 -11.88397,-3.629919 -15.77734,-2.675781 -5.40299,1.324023 -8.87564,4.898953 -15.07617,15.513672 -5.22472,8.94412 -8.34789,20.573225 -8.03516,29.923828 0.11732,3.50835 0.10244,3.68726 -0.22851,2.634766 -1.48009,-4.707379 -1.71939,-8.500679 -0.85938,-13.660157 1.1795,-7.076067 2.77692,-11.909993 6.09766,-18.457031 3.03968,-5.993272 3.54949,-7.532807 3.42187,-10.353516 -0.22388,-4.947113 -2.99569,-7.613388 -10.35156,-9.957031 -3.49801,-1.114434 -7.19633,-1.582858 -10.73242,-1.492187 z m -51.86914,3.267578 c -3.88121,-0.108412 -6.57221,0.892356 -8.97852,3.185547 -1.9761,1.883243 -3.3081,4.207246 -4.84375,8.451172 -2.57721,7.122195 -3.59219,8.312934 -9.63672,11.289062 -4.35123,2.142578 -5.88686,3.378526 -7.06054,5.689453 -1.00446,1.977151 -1.36088,3.577841 -1.36329,6.125 -0.006,1.8873 0.59138,6.577736 0.86719,6.853516 0.0446,0.0444 0.38091,-0.576556 0.74805,-1.378906 0.36709,-0.80239 1.48006,-2.853231 2.47266,-4.556641 1.31708,-2.260932 1.82662,-2.949893 1.88671,-2.554687 0.1073,0.705948 -0.83549,3.790621 -1.64843,5.394531 -0.96474,1.90329 -1.80893,4.562867 -2.09375,6.591797 -0.63201,4.50246 1.41802,8.452674 5.5625,10.718754 1.57409,0.86052 4.74205,1.8594 5.96484,1.8789 0.70205,0.0114 0.81513,-0.0598 0.67383,-0.42578 -0.98969,-2.56359 -1.23559,-7.460012 -0.52735,-10.476562 1.02139,-4.34808 3.91215,-8.365526 7.08789,-9.853516 1.28458,-0.60182 1.76105,-0.685546 3.96876,-0.685546 1.37967,0 2.84772,0.08831 3.26171,0.195312 l 0.75196,0.195313 -0.0801,-4.335938 c -0.15268,-8.251691 1.07701,-13.261313 4.25976,-17.357422 l 1.17969,-1.517578 -1.14258,-0.433594 c -1.37416,-0.521722 -2.99232,-1.607422 -3.19922,-2.146484 -0.0825,-0.215143 -0.12087,-0.414445 -0.082,-0.443359 0.0376,-0.0289 1.60758,0.175519 3.48829,0.453125 l 3.41992,0.503906 1.68554,-0.925781 c 0.9273,-0.509701 2.38124,-1.090752 3.23047,-1.291016 1.96694,-0.463864 7.7614,-0.472673 9.89258,-0.01563 1.51177,0.324302 1.59035,0.31538 1.94531,-0.191406 1.03775,-1.48151 -0.18498,-3.051231 -2.90625,-3.730469 -0.88936,-0.221995 -2.57693,-0.642734 -3.75,-0.935547 -1.17309,-0.2928 -3.45826,-1.16226 -5.07812,-1.931641 -2.38468,-1.132618 -3.45816,-1.486438 -5.64453,-1.865234 -1.5914,-0.275674 -3.01877,-0.436519 -4.3125,-0.472656 z m -11.98828,14.542969 c 0.0276,0 0.0488,2.136669 0.0488,4.748047 0,4.427925 -0.035,4.796151 -0.52539,5.457031 -1.35522,1.825716 -3.7913,2.59799 -8.13086,2.576172 l -2.38281,-0.01172 3.20899,-1.074219 v -0.002 c 4.9169,-1.646668 5.40189,-2.144839 5.69531,-5.878906 0.17709,-2.253697 0.29963,-2.711987 1.11719,-4.173828 0.50504,-0.903036 0.94104,-1.641083 0.96875,-1.640625 z m 155.01953,11.291015 c -0.87143,0 -1.01999,0.105611 -1.72657,1.242188 -0.93887,1.510899 -2.40698,2.474247 -5.24414,3.4375 -1.14788,0.389686 -2.08789,0.788614 -2.08789,0.886718 0,0.09814 0.65956,1.227995 1.46485,2.511719 0.80527,1.283749 1.89659,3.125777 2.42578,4.091797 0.52919,0.96601 0.98286,1.785416 1.00781,1.822266 0.025,0.0369 0.70569,-0.329113 1.51172,-0.814453 0.80609,-0.4854 1.60412,-0.882813 1.77344,-0.882813 0.16936,0 0.50241,-0.07589 0.74218,-0.167969 0.24737,-0.095 -0.12241,0.562762 -0.85546,1.519532 -0.71068,0.92719 -1.36084,1.960365 -1.44532,2.296875 -0.22389,0.89198 -0.0177,2.208776 0.74414,4.748046 0.3713,1.23696 0.79595,3.32651 0.94336,4.642578 0.4368,3.9009 0.36781,3.78799 1.35157,2.1543 1.855,-3.081228 3.14306,-4.238954 5.05664,-4.544924 2.7381,-0.43791 5.75981,2.763764 8.49414,9.003904 l 0.9707,2.21485 0.44336,-0.86719 c 0.24473,-0.4771 0.68063,-1.70021 0.96875,-2.7168 1.66956,-5.890808 0.37843,-11.140531 -3.54688,-14.419921 l -1.02929,-0.859375 -0.96094,0.867188 c -1.54442,1.3952 -3.4766,1.495937 -7.01172,0.367187 l -1.88281,-0.599609 3.25195,-0.07227 c 3.80535,-0.0827 3.98353,-0.173543 4.42188,-2.277343 0.35993,-1.72748 0.13218,-5.951862 -0.41992,-7.8125 -0.44006,-1.481696 -1.96267,-3.301506 -3.35352,-4.007813 -1.42266,-0.722515 -4.96963,-1.763672 -6.00781,-1.763672 z m -130.64649,2.867188 c 0.0789,0.04925 0.19712,0.293175 0.41797,0.771484 0.83038,1.798362 0.6509,4.270796 -0.55469,7.652344 -2.72337,7.6397 -3.24933,11.12849 -2.26757,15.054688 1.34776,5.39126 5.23419,10.69297 12.02929,16.41211 1.13254,0.9531 2.0586,1.86167 2.0586,2.01953 0,0.36215 -0.51608,0.89063 -0.8711,0.89062 -0.14816,0 -1.62258,-1.01247 -3.27539,-2.25 -5.57296,-4.1726 -9.31388,-8.39981 -11.42383,-12.90234 -1.45979,-3.11602 -1.81944,-4.95978 -1.66601,-8.560546 0.15077,-3.54005 0.64881,-5.391026 2.77539,-10.316406 1.21346,-2.81061 1.70623,-4.404825 2.5918,-8.376953 0.0667,-0.298958 0.10661,-0.443782 0.18554,-0.394531 z m -44.19726,20.091797 -1.65625,2.558589 c -3.17824,4.91268 -5.16635,8.91283 -6.08594,12.2461 -0.22845,0.82803 -0.47301,2.74754 -0.54297,4.26562 -0.0672,1.45966 -0.0413,2.20001 0.084,2.92969 0.0377,0.004 0.0757,0.005 0.11329,0.01 0.12417,0.0147 0.24838,0.0402 0.37304,0.0508 0.0605,0.005 0.12094,0.008 0.18164,0.01 0.017,-6.9e-4 0.0338,0.003 0.0508,0.004 0.0215,1e-5 0.043,-4e-5 0.0645,0 0.37743,0.001 0.58157,0.0163 0.6914,0.0898 0.0965,0.0149 0.1928,0.03 0.28907,0.0469 0.1229,0.0432 0.0698,0.01 0.0488,0.008 0.0968,0.002 0.19432,0.008 0.29102,0.0137 0.0844,0.007 0.16735,0.0204 0.25195,0.0254 0.0548,0.002 0.10927,0.003 0.16407,0.004 0.11914,-0.005 0.26464,0.0257 0.3789,0.0371 0.0362,-0.001 0.0749,-5.9e-4 0.11133,0 0.0847,10e-4 0.16921,0.002 0.25391,0.002 0.15661,-0.003 0.31321,0.008 0.46875,0.0254 0.0407,0.006 0.0801,0.01 0.12109,0.0117 0.0745,0.002 0.15011,0.0107 0.22461,0.0117 0.0979,5.9e-4 0.19507,-1.3e-4 0.29297,0 0.0985,1e-4 0.19837,-2e-5 0.29687,0 0.11282,1e-5 0.22507,0 0.33789,0 h 0.34961 c 0.16132,-0.002 0.32163,0.0164 0.48243,0.0254 0.0916,0.005 0.18359,0.01 0.27539,0.0117 0.15406,-8e-4 0.30771,0.0101 0.46093,0.0254 0.0754,0.007 0.15097,0.01 0.22657,0.0117 0.115,0.002 0.23068,0.003 0.3457,0.004 0.18581,-0.003 0.37144,0.005 0.55664,0.0195 0.1855,0.012 0.36832,0.0403 0.55273,0.0625 0.15426,0.0135 0.30767,0.0372 0.46094,0.0586 0.0437,0.006 0.0888,0.0107 0.13281,0.0117 0.1326,0.003 0.26387,0.0107 0.39649,0.0117 0.17861,-0.004 0.35729,0.01 0.53516,0.0234 0.1776,0.009 0.35606,0.0281 0.5332,0.0469 0.17435,0.0199 0.34686,0.0509 0.52148,0.0684 0.0704,0.007 0.14024,0.01 0.21094,0.0117 0.15712,0 0.31414,0.009 0.4707,0.0215 0.1113,0.008 0.22246,0.0107 0.33399,0.0137 0.1047,0.003 0.20971,0.0107 0.31445,0.0117 0.13484,6.4e-4 0.26946,0.0117 0.4043,0.0117 0.24269,0.002 0.48593,0.0145 0.72851,0.0215 0.23062,0.007 0.46071,0.01 0.69141,0.0117 0.22162,0.002 0.44439,-6.1e-4 0.66602,0.002 0.16704,3.2e-4 0.33452,0.0117 0.50195,0.0117 0.17609,5e-5 0.35125,0 0.52734,0 h 0.41602 0.51172 0.15234 c 0.18671,-0.0236 0.38373,-0.039 0.59375,-0.041 0.28002,-0.003 0.5582,0.002 0.83789,0.0156 0.2166,0.0156 0.43341,0.0349 0.65039,0.0449 0.19742,0.008 0.39426,0.0117 0.5918,0.0137 0.20347,0.002 0.40785,0.0117 0.61133,0.0117 0.16565,3e-4 0.33045,0.002 0.49609,0.002 0.20356,5e-5 0.40777,0 0.61133,0 h 0.64062 0.5918 c 0.20138,-0.004 0.40253,0.004 0.60352,0.0156 0.15304,0.009 0.30772,0.0136 0.46093,0.0176 0.15604,0.003 0.31073,0.0107 0.4668,0.0117 0.14024,5.5e-4 0.28164,-1.3e-4 0.42188,0 0.12395,1e-4 0.24872,0 0.37304,0 0.14485,1e-5 0.28875,0 0.4336,0 0.16267,-0.002 0.32599,0.002 0.48828,0.0137 0.13393,0.0109 0.26804,0.0155 0.40234,0.0195 0.21324,-3.9e-4 0.42542,0.0203 0.63672,0.0469 0.0844,0.0144 0.16861,0.0223 0.25391,0.0273 0.11085,0.004 0.23571,0.0311 0.34179,0.0391 0.16141,0.006 0.32287,0.009 0.48438,0.01 0.1987,9.9e-4 0.39699,-6.7e-4 0.5957,0.002 0.13494,2.6e-4 0.2694,-2e-5 0.4043,0 -0.74248,-2.23115 -1.71784,-4.6721 -3.05664,-7.47852 l -1.68164,-3.52539 -1.98633,-0.30469 c -4.41486,-0.6798 -8.29149,-2.61464 -10.77344,-5.375 -1.38664,-1.5422 -2.07279,-2.79815 -2.64062,-4.835934 z m 181.07617,2.884769 c -0.48286,-0.0572 -0.98086,0.0594 -1.40625,0.35742 -0.82439,0.57751 -1.96104,2.52055 -3.3086,5.65625 -1.22509,2.85114 -2.97528,6.69151 -4.55664,10.12695 0.0821,-0.008 0.13448,-0.011 0.40235,-0.0312 0.24555,-0.0391 0.54533,-0.0705 0.8125,-0.0957 0.34692,-0.0328 0.6967,-0.0438 1.04492,-0.0508 0.33587,-0.006 0.6719,-0.007 1.00781,-0.008 0.27903,-6.2e-4 0.55691,1.7e-4 0.83594,0 0.26968,-1.3e-4 0.53891,-0.002 0.80859,-0.002 0.27378,-2e-5 0.54849,1e-5 0.82227,0 h 0.93164 0.93555 0.75 c 0.24687,-0.0269 0.49308,-0.0521 0.74023,-0.0742 0.48763,-0.0472 0.97811,-0.0677 1.46484,-0.12109 0.33296,-0.0292 0.66302,-0.0693 0.99415,-0.11328 0.35425,-0.0391 0.7085,-0.0765 1.0625,-0.11524 0.23049,-0.0249 0.4622,-0.041 0.69335,-0.0547 -0.16197,0.0139 -0.28731,0.0389 -0.42187,0.0605 0.38119,-0.033 0.7597,-0.0812 1.14063,-0.11718 0.4184,-0.0391 0.83964,-0.055 1.25976,-0.0664 0.29809,-0.007 0.59636,-0.01 0.89453,-0.0117 0.26691,-0.001 0.53387,-0.002 0.80078,-0.002 0.0456,-3e-5 0.0911,2e-5 0.13672,0 0.085,-5e-5 0.18222,-0.002 0.26758,-0.002 h 0.002 l 0.002,-0.002 c 0.0188,-0.002 0.0378,-0.002 0.0566,-0.004 -0.26938,-1.06107 -0.5622,-2.14089 -1.01563,-3.50195 -1.41042,-4.23366 -4.01812,-9.21001 -5.83984,-11.14844 -0.36778,-0.39138 -0.8355,-0.62247 -1.31836,-0.67968 z" /><path
       style="fill:#000000;fill-opacity:1"
       id="path6200"
       d="m 225.80676,206.65087 c -0.65169,2.93807 -1.08962,5.91823 -1.48658,8.89973 -0.45283,2.71616 0.15012,3.18135 1.06116,6.85196 5.82979,8.9605 18.50185,0.71594 12.67206,-8.24456 v 0 c 1.65036,7.38562 0.85066,5.75877 1.25298,3.38455 0.3176,-2.39397 0.66909,-4.78483 1.14867,-7.15248 2.64401,-10.3579 -12.00428,-14.0971 -14.64829,-3.7392 z" /><path
       style="fill:#000000;fill-opacity:1"
       id="path6202"
       d="m 277.70402,207.4917 c -0.30016,2.33734 -0.54231,4.68087 -0.73827,7.0291 -0.0499,0.59787 -0.0909,1.19638 -0.12836,1.79513 -0.66132,10.66956 14.42772,11.60482 15.08905,0.93525 v 0 c 0.0301,-0.49256 0.0646,-0.98482 0.10523,-1.47665 0.18087,-2.18058 0.4088,-4.35624 0.68799,-6.52655 1.24188,-10.61766 -13.77376,-12.37394 -15.01564,-1.75628 z" /><path
       style="fill:#000000;fill-opacity:1"
       id="path6206"
       d="m 190.06175,255.33757 c 2.15996,4.80261 4.93181,9.33223 8.64274,13.1043 1.08618,1.10407 2.28829,2.08776 3.43244,3.13164 7.72347,5.90749 17.00548,8.85118 26.57239,10.02767 2.1408,0.26327 4.29878,0.36031 6.44817,0.54046 2.23154,0.0432 4.46272,0.14701 6.69461,0.1295 4.55319,-0.0357 10.4677,-0.38198 15.01015,-0.67262 6.60098,-0.42235 13.18847,-0.97671 19.77434,-1.58514 7.64389,-0.71367 15.15164,-2.47763 22.35639,-5.11481 3.7553,-1.37457 4.7089,-1.90293 8.2278,-3.53936 3.71366,-2.01698 7.78588,-3.80706 10.77738,-6.89884 0.56796,-0.587 1.06107,-1.24207 1.59161,-1.8631 1.72943,-2.32246 2.93467,-4.96229 4.35224,-7.47261 0.0569,-0.28936 2.43224,-3.59718 0.86634,-1.49578 7.1249,-7.96949 -4.14566,-18.04562 -11.27056,-10.07613 v 0 c -1.03309,1.3102 -1.94521,2.69832 -2.76799,4.15255 -1.01355,1.80307 -1.93963,3.65304 -2.97971,5.44097 -0.7422,1.69234 -5.55072,3.58995 -6.98146,4.52213 -8.11325,3.83347 -16.57227,6.52794 -25.56442,7.29123 -6.41312,0.5939 -12.82791,1.13182 -19.25566,1.54616 -4.07946,0.26296 -9.75944,0.59963 -13.87787,0.64956 -1.91486,0.0232 -3.82959,-0.0555 -5.74439,-0.0833 -1.75781,-0.13326 -3.52168,-0.2021 -5.27341,-0.39978 -6.67705,-0.7535 -13.30168,-2.50769 -18.88036,-6.3698 -0.74607,-0.64586 -1.52764,-1.25284 -2.23821,-1.93756 -2.72825,-2.62898 -4.63847,-5.90057 -6.17256,-9.33339 -4.45905,-9.71565 -18.19905,-3.4096 -13.74,6.30605 z" /></g></svg>
